<?xml version="1.0" encoding="utf-8"?>
<!-- Generator: Adobe Illustrator 24.2.3, SVG Export Plug-In . SVG Version: 6.00 Build 0)  -->
<svg version="1.1" id="レイヤー_1" xmlns="http://www.w3.org/2000/svg" xmlns:xlink="http://www.w3.org/1999/xlink" x="0px"
	 y="0px" viewBox="0 0 46 46" enable-background="new 0 0 46 46" xml:space="preserve">
<g>
	<circle fill="#FFFFFF" cx="23" cy="23" r="22.5"/>
	<path fill="#16935B" d="M34,35.4c-0.4,0-0.7-0.1-1-0.4L11,13c-0.6-0.6-0.6-1.5,0-2c0.6-0.6,1.5-0.6,2,0L35,33c0.6,0.6,0.6,1.5,0,2
		C34.7,35.2,34.3,35.4,34,35.4z"/>
	<path fill="#16935B" d="M12,35.4c-0.4,0-0.7-0.1-1-0.4c-0.6-0.6-0.6-1.5,0-2L33,11c0.6-0.6,1.5-0.6,2,0c0.6,0.6,0.6,1.5,0,2L13,35
		C12.8,35.2,12.4,35.4,12,35.4z"/>
</g>
</svg>
