<svg width="375" height="53" viewBox="0 0 375 53" fill="none" xmlns="http://www.w3.org/2000/svg">
<g clip-path="url(#clip0)">
<path d="M369.2 44.7301C369.08 44.9401 368.9 45.0901 368.72 45.1801C368.44 45.3101 368.02 45.3701 367.47 45.3701H365.26V42.7901H367.72C368.15 42.7901 368.5 42.8801 368.78 43.0201C369.18 43.2301 369.37 43.5801 369.37 44.0601C369.38 44.3001 369.32 44.5301 369.2 44.7301ZM369.74 47.6001C369.29 46.9101 368.8 46.4401 368.26 46.1801V46.1601C369.72 45.9701 370.45 45.2701 370.45 44.0601C370.45 43.6401 370.35 43.2501 370.13 42.9101C369.92 42.5401 369.63 42.2901 369.26 42.1501C368.87 42.0101 368.36 41.9301 367.68 41.9301H364.24V49.7001H365.27V46.2801H366.45C366.92 46.2801 367.28 46.3701 367.52 46.5401C367.83 46.7701 368.26 47.2901 368.77 48.1101L369.79 49.7001H371.09L369.74 47.6001Z" fill="#78197C" stroke="#78197C" stroke-width="0.3313"/>
<path d="M360.4 45.92C360.4 49.65 363.44 52.68 367.17 52.68C370.91 52.68 373.94 49.65 373.94 45.92C373.94 42.19 370.9 39.15 367.17 39.15C363.44 39.14 360.4 42.19 360.4 45.92ZM361.12 45.92C361.12 42.59 363.84 39.88 367.17 39.88C370.5 39.88 373.21 42.59 373.21 45.92C373.21 49.25 370.5 51.95 367.17 51.95C363.84 51.95 361.12 49.25 361.12 45.92Z" fill="#78197C" stroke="#78197C" stroke-width="0.3313"/>
<path d="M54.56 14.15H22.13V5.58997H10.77V14.15H0V22.8H10.77V42.13C10.77 44.35 16.95 52.41 28.47 52.41H56.36L57.03 42.87H29.63C25.26 42.87 22.14 40.4 22.14 36.35V22.8H45.27V26.58C45.27 28.55 43.45 29.79 41.32 29.79H32.35V37.44H42.3C48.65 37.44 54.65 34.07 54.65 25.52L54.56 14.15Z" fill="#78197C"/>
<path d="M89.03 52.41H60.72V42.87V5.52002H71.42V42.88H88.94C92.32 42.88 98.23 43.12 98.23 36.62V22.85H107.87V40.65C107.87 45.26 105.31 52.41 94.2 52.41H89.03V52.41Z" fill="#78197C"/>
<path d="M168.19 31.18V22.63H139.14V14.15H167.86V5.52002H114.38V14.15H127.79V22.63H114.38V31.18H127.79V40.15C127.79 44.02 130.01 52.75 139.88 52.75H168.03V43.93H143.93C140.8 43.93 139.15 42.46 139.15 37.77V31.19H168.19V31.18Z" fill="#78197C"/>
<path d="M232.04 26.82V18.27H186.29V5.52002H175.67V39.58C175.67 48.38 181.59 52.91 188.59 52.75H231.54V44.03H194.52C188.75 44.03 186.29 41.4 186.29 37.52V26.82H232.04V26.82Z" fill="#78197C"/>
<path d="M233.94 8.39C233.94 13.02 230.21 16.78 225.63 16.78C221.04 16.78 217.31 13.02 217.31 8.39C217.31 3.76 221.04 0 225.63 0C230.21 0 233.94 3.76 233.94 8.39ZM225.62 5.1C223.8 5.1 222.33 6.59 222.33 8.43C222.33 10.27 223.8 11.76 225.62 11.76C227.43 11.76 228.91 10.27 228.91 8.43C228.91 6.6 227.43 5.1 225.62 5.1Z" fill="#78197C"/>
<path d="M238.71 5.58997H294.49V18.02C294.49 22.87 292.65 26.2 290.21 28.88C287.74 31.59 282.73 33.16 279.69 33.16H264.7C264.7 33.16 264.45 37.03 264.45 40.15C264.45 44.11 260.18 52.59 251.05 52.59H238.78V43.45H247.34C253.01 43.45 255.89 40.99 255.89 36.22V24.58H277.86C280.66 24.58 284.52 22.47 284.11 14.55H238.61L238.71 5.58997Z" fill="#78197C"/>
<path d="M334.17 5.75H299.19V15.22H334.17V5.75Z" fill="#78197C"/>
<path d="M355.8 18.59H344.77V38.67C344.77 41.72 343.71 44.1 340.25 44.1H299.28V52.82H339.76C343.29 52.82 355.81 52.24 355.81 37.85V18.59H355.8Z" fill="#78197C"/>
</g>
<defs>
<clipPath id="clip0">
<rect width="374.1" height="52.84" fill="white"/>
</clipPath>
</defs>
</svg>
