<?xml version="1.0" encoding="utf-8"?>
<!-- Generator: Adobe Illustrator 24.2.0, SVG Export Plug-In . SVG Version: 6.00 Build 0)  -->
<svg version="1.1" id="レイヤー_1" xmlns="http://www.w3.org/2000/svg" xmlns:xlink="http://www.w3.org/1999/xlink" x="0px"
	 y="0px" viewBox="0 0 100 20" enable-background="new 0 0 100 20" xml:space="preserve">
<g>
	<path fill="#005748" d="M9.7,11.2c0-0.8,0-2.7,0-5c3,0,6.1,0,7.6,0c2.1,0,3.1,0.7,3.1,1.8c0,1-1,1.5-2.9,1.5c-2.2,0-3.6,0-3.6,0
		v2.3c0,0,3.1,0,6.6,0c3.5,0,5-1.6,5-3.9c0-2.4-1.6-4-4.9-4c-3.1,0-7.3,0-11,0c0-1.9,0-3.3,0-3.3H4.6c0,0,0,1.3,0,3.3
		c-2,0-3.2,0-3.2,0v2.3c0,0,1.3,0,3.2,0c0,1.7,0,3.8,0,6c0,6.5,7.4,6.3,7.4,6.3h12.9v-2.3c0,0-9.4-0.2-10.2-0.2
		C12.5,16,9.7,14.3,9.7,11.2z"/>
	<path fill="#005748" d="M32.9,18.2c4.8,0,5.9-1,7.5-1.8c2-1.1,7.5-5.5,9.2-9.2H44C43.6,8,36.5,16.5,33,14.9
		c-1.1-0.5-1.1-0.9-1.1-3.4c0-2,0-10.8,0-10.8h-5c0,0,0,1.4,0,11.1C26.9,17.8,31,18.2,32.9,18.2z"/>
	<path fill="#005748" d="M73.5,3.9V1.6H50.2v2.3h6.9c0,0.7,0,2,0,3.8h-6.9v2.1h6.9c0,0.9,0,1.6,0,2.7c0,5.2,2.8,6,7.5,6
		c2.8,0,8,0,8,0v-2.3c0,0-3.5-0.1-4.9-0.1c-3.5,0-6-0.7-6-3.2c0-0.6,0-1.5,0-3h11.9V7.7H61.6c0-1.5,0-3,0-3.8H73.5z"/>
	<path fill="#005748" d="M86.7,12.3c0,4.9-3.3,6.2-6.9,6.2c-1.3,0-4.9,0-4.9,0v-2.3c0,0,1.8,0,4.1,0c2,0,3.1-1.6,3.1-4
		c0-1.6,0-4.1,0-4.1s4.8,0,8.7,0c2.2,0,2.9-0.9,2.9-2c0-1.7-1.6-2.2-2.9-2.2c-2.4,0-15.8,0-15.8,0V1.6c0,0,8.9,0,17.4,0
		c8.4,0,8.3,8.8,1.3,8.8c-2.5,0-6.9,0-6.9,0S86.7,11.4,86.7,12.3z"/>
	<path fill="#005748" d="M94,18.2h0.6v-1.4h0.9c0.6,0,0.7,0.3,0.7,0.9c0,0.2,0,0.4,0.1,0.5h0.6c-0.1-0.1-0.2-0.5-0.2-0.9
		c0-0.5-0.3-0.7-0.5-0.7v0c0.1,0,0.6-0.2,0.6-0.9c0-0.6-0.4-0.9-1.1-0.9H94V18.2z M94.6,15.3h1c0.3,0,0.6,0.1,0.6,0.5
		c0,0.4-0.2,0.5-0.6,0.5h-1V15.3"/>
	<path fill="#005748" d="M98.2,16.5c0,1.6-1.3,2.9-2.9,2.9c-1.6,0-2.9-1.3-2.9-2.9c0-1.6,1.3-2.9,2.9-2.9
		C96.9,13.6,98.2,14.9,98.2,16.5z M95.3,14.1c-1.4,0-2.5,1.1-2.5,2.5c0,1.4,1.1,2.5,2.5,2.5c1.4,0,2.5-1.1,2.5-2.5
		C97.7,15.2,96.6,14.1,95.3,14.1z"/>
</g>
</svg>
