<svg xmlns="http://www.w3.org/2000/svg" width="712.03" height="98.557" viewBox="0 0 712.03 98.557">
  <g id="グループ_1682" data-name="グループ 1682" transform="translate(14761.437 528.975)">
    <path id="パス_3865" data-name="パス 3865" d="M10.157,0H701.873A10.157,10.157,0,0,1,712.03,10.157V88.369a10.157,10.157,0,0,1-10.157,10.157H10.157A10.157,10.157,0,0,1,0,88.369V10.157A10.157,10.157,0,0,1,10.157,0Z" transform="translate(-14761.437 -528.975)" fill="#d15f17"/>
    <g id="グループ_1681" data-name="グループ 1681" transform="translate(-14742.299 -528.945)">
      <g id="グループ_412" data-name="グループ 412" transform="translate(0 0)">
        <path id="パス_3867" data-name="パス 3867" d="M28.081-18.662A31.392,31.392,0,0,1,18.809-7.354l-2.974-2.754a25.569,25.569,0,0,0,5.947-6.3L10.928-14.766v8.892a3.061,3.061,0,0,0,.681,2.2,3.76,3.76,0,0,0,2.673.7H27.173V1H13.7Q9.888,1,8.2-.681a6.925,6.925,0,0,1-1.685-5.1v-8.306l-5.713.864L.234-17.095l6.4-.923v-6.694h4.409v6.064l14.868-2.139Zm30.542,5.947a28.86,28.86,0,0,1-9.075,8.767A41.15,41.15,0,0,1,36.475,1.538l-2.3-1.743V-23.364h4.512V-3.442a36.487,36.487,0,0,0,8.789-4.285,28.544,28.544,0,0,0,7.69-7.332ZM87.935-9.771h-13.9v3.984a3.728,3.728,0,0,0,.4,1.978q.4.6,1.714.6H86.514v3.9H75.806q-3.589,0-4.9-1.45T69.595-5.493V-9.771H61.318v-3.794h8.306v-5.479h-7.4v-3.75H85.8v3.75H74.165v5.479h13.77Zm31.172-12.246a15.812,15.812,0,0,1-1.531,3.9,19.664,19.664,0,0,1-4.058,5.3,25.78,25.78,0,0,1-5.251,4.021L106-11.821a18.4,18.4,0,0,0,4.2-3.354,19.472,19.472,0,0,0,3.105-4.175H92.153V-23.13h25.62Zm-13.022,4.043v.718q0,3-.11,4.988a17.478,17.478,0,0,1-.806,4.219,12.968,12.968,0,0,1-2.212,4.167A14.111,14.111,0,0,1,99.185-.564a20.515,20.515,0,0,1-5.259,2.219L92.344-1.89q5.435-1.685,7.368-4.79t1.934-8.481l-.029-2.812ZM149.868-3.237,147.5.117a27.791,27.791,0,0,0-4.233-3.281,4.39,4.39,0,0,1-1.545,3.3q-1.4,1.128-5.193,1.128a7.79,7.79,0,0,1-4.614-1.326,4.18,4.18,0,0,1-1.875-3.6,4.433,4.433,0,0,1,1.89-3.7,7.2,7.2,0,0,1,4.468-1.428,24.788,24.788,0,0,1,2.71.176v-6.548h-9.507v-3.633H139.1v-5.317h4.189v5.317h5.464v3.633h-5.464v7.808A28.349,28.349,0,0,1,149.868-3.237ZM139.1-4.072V-5.1a7.4,7.4,0,0,0-2.71-.454,3.13,3.13,0,0,0-1.707.476,1.421,1.421,0,0,0-.754,1.238,1.322,1.322,0,0,0,.776,1.194,3.675,3.675,0,0,0,1.816.432Q139.1-2.212,139.1-4.072Zm-10.986-19.2a43.322,43.322,0,0,0-1.8,11.294A45.928,45.928,0,0,0,128,.337l-4.116.835a48.028,48.028,0,0,1-1.611-12.114,52.949,52.949,0,0,1,1.714-12.905Zm34.761,3.325q0,2.534-.029,3.882h13.521q0,5.3-.234,8.708a23.634,23.634,0,0,1-.732,5,4.559,4.559,0,0,1-1.875,2.5,6.228,6.228,0,0,1-3.516.916H165.4l-.6-3.838h4.5a2.245,2.245,0,0,0,2.256-1.75q.586-1.75.586-8.21H162.7a18.565,18.565,0,0,1-3.1,8.416,18.8,18.8,0,0,1-6.746,5.72l-2.168-2.974a16.345,16.345,0,0,0,5.859-5.479q2.109-3.34,2.109-8.965,0-.425-.015-.864v-3.062h-7.017v-3.5h26.88v3.5ZM208.506,1H181.553v-3.6h11.191V-6.416h-9.419V-9.829h9.419v-3.208H186.87v-1.406a32.134,32.134,0,0,1-4.951,2.593l-1.8-3.076a29.179,29.179,0,0,0,6.643-3.889,27.6,27.6,0,0,0,5.867-6.013h4.38a22.156,22.156,0,0,0,4.8,4.644,36.1,36.1,0,0,0,8.1,4.556L207.773-12a30.842,30.842,0,0,1-4.819-2.52v1.479h-5.947v3.208h9.536v3.413h-9.536v3.809h11.5ZM189.771-16.436h10.386a27.6,27.6,0,0,1-5.3-5.01q-.381.5-1,1.2t-1.194,1.333a13.406,13.406,0,0,1-1.384,1.289Q190.474-16.963,189.771-16.436ZM224.194,1.348,223.11-2.314q5.815-.645,8.745-2.681a6.916,6.916,0,0,0,2.93-6.079,7.21,7.21,0,0,0-2.109-5.427,9.375,9.375,0,0,0-5.845-2.4q-.308,8.2-3.069,13.293t-6.951,5.09A5.082,5.082,0,0,1,212.4-3.083a10.489,10.489,0,0,1-1.685-5.881v-.366A12.09,12.09,0,0,1,214.8-18.3a15.4,15.4,0,0,1,10.291-4.2h.6a15.262,15.262,0,0,1,9.749,3.01,9.864,9.864,0,0,1,3.816,8.181,10.933,10.933,0,0,1-3.845,8.877Q231.563.776,224.194,1.348Zm-1.479-19.819a10.394,10.394,0,0,0-5.6,3.457A8.867,8.867,0,0,0,214.8-9.1a8.1,8.1,0,0,0,.571,3.076q.571,1.406,1.6,1.406,2.065,0,3.75-4.014A29.546,29.546,0,0,0,222.715-18.472Zm43.3,18.9H242.637V-3.5h18.75V-17.974L242.886-18V-21.87h23.13Zm30.776.264h-23.73V-21.65h23.73Zm-4.556-3.75V-17.974H277.5V-3.062ZM318.149-12.3q0,5.8-3.113,9.177t-9.163,4.871l-1.523-3.721q5.01-1.23,7.141-3.721a8.552,8.552,0,0,0,2.131-5.728V-13.74h-12.3v-3.9h12.3v-6.958h4.526v6.958h10.5v3.9h-10.5Zm25.239-4.907a22.554,22.554,0,0,1-1.934,8.057,49.494,49.494,0,0,1,3.94,4.6L342.51-1.89a42.257,42.257,0,0,0-3-3.721,27.965,27.965,0,0,1-6.621,7.031l-2.314-2.71a24.422,24.422,0,0,0,6.211-7.251,66.869,66.869,0,0,0-5.068-4.863l2.578-2.637q1.245.967,4.175,3.853a17.313,17.313,0,0,0,1.055-5.024h-8.027v-3.3h5.01V-24.8h3.94v4.292h4.526v3.3ZM356.646-1.641A2.661,2.661,0,0,1,355.591.366a3.547,3.547,0,0,1-2.4.923h-4.775l-.5-3.75h3.779a1.087,1.087,0,0,0,.688-.256.758.758,0,0,0,.322-.608V-16.494h-7.134v-3.325h7.134v-4.922h3.94v4.922h2.578v3.325h-2.578Zm-4.922-5.01L348-5.273a71.957,71.957,0,0,0-3.4-8.613l3.457-1.348A66.572,66.572,0,0,1,351.724-6.65Zm16.86-17.974a13.779,13.779,0,0,1-.718,1.406H374.4v2.681H371l1,1.758-3.472.732-1.23-2.49h-1.274a20.38,20.38,0,0,1-2.783,2.871l-2.974-1.553a19.484,19.484,0,0,0,4.453-5.8Zm13.169.117q-.293.615-.659,1.289h7.881v2.681h-4.058l1.069,1.611-3.633.659-1.318-2.271h-1.772a18.363,18.363,0,0,1-2.036,2.153l-3.032-1.348a19.9,19.9,0,0,0,3.779-5.259Zm-8.95,19.1A33.46,33.46,0,0,1,362.124,1.23l-1.86-2.988a33.22,33.22,0,0,0,5.215-2.681h-2.622v-7.969H372.8v-1.567h-11.06v-3.12H372.8v-1.377h4.116v1.377h11.309v3.12H376.919v1.567l10.327.015v5.684a2.324,2.324,0,0,1-2.109,2.5,33.078,33.078,0,0,0,4.688,1.934l-2.285,3.413a31.465,31.465,0,0,1-10.62-6.665V1.685H372.8Zm-5.962-4.248V-5.3a27.5,27.5,0,0,0,5.112-4.351Zm10.84,0a22.106,22.106,0,0,0,3.9,3.325l-.161-.894h.938a1.154,1.154,0,0,0,.725-.183.6.6,0,0,0,.227-.491V-9.653Zm32.358,6.3h-4.175l.015-5.757q-5.229,2.563-5.229,4.79t5.039,2.212l1.626-.015a74.282,74.282,0,0,0,9.961-.483l.205,3.662q-4.116.4-8.071.4-7.6,0-10.2-1.3a4.233,4.233,0,0,1-2.593-4.006q0-4.453,8.511-8.745a1.366,1.366,0,0,0-1.143-.483,8.391,8.391,0,0,0-3.435.981,21.269,21.269,0,0,0-4.636,3.237q-1.787,1.582-2.563,2.139l-2.549-2.754a27.1,27.1,0,0,0,7.705-8.437h-6.255v-3.472h7.778a25.039,25.039,0,0,0,.923-3.325l4.307.234q-.41,1.816-.835,3.091H414.1v3.472H403.022q-.381.762-1.406,2.344a8.965,8.965,0,0,1,2.813-.483,4.926,4.926,0,0,1,4.307,1.846q1.9-.82,8.027-3.223l1.714,3.486q-2.886.981-8.613,3.076a17.875,17.875,0,0,1,.146,2.358Zm19.98-20.728a23.975,23.975,0,0,1-7.046,8.936l-2.49-2.52a25.591,25.591,0,0,0,5.757-7.588Zm17.886,3.75H432.3v-3.486h15.6ZM428.877,1.714h-4.131V-7.412a23.127,23.127,0,0,1-2.168,2.08l-2.153-2.725a28.8,28.8,0,0,0,4.607-5.6,28.618,28.618,0,0,0,2.732-4.761l3.486,1.406a21.534,21.534,0,0,1-2.944,5.229h.571ZM444.36-1.523a2.7,2.7,0,0,1-1.025,2.19,3.531,3.531,0,0,1-2.3.842h-5.01l-.454-3.779h3.662a.817.817,0,0,0,.6-.271.8.8,0,0,0,.264-.549v-9.053h-9.185v-3.6h18.12v3.6H444.36Zm13.4,2.3L457.1-2.373a58.322,58.322,0,0,0,8-.784,10.1,10.1,0,0,0,4.761-2.1,5.026,5.026,0,0,0,1.8-4.014,4.893,4.893,0,0,0-1.531-3.765,5.633,5.633,0,0,0-3.992-1.421q-3.384,0-13.857,1.978l-.571-3.3,7.852-1.157a53.384,53.384,0,0,1,6.636-.674,10.168,10.168,0,0,1,6.833,2.183,7.546,7.546,0,0,1,2.556,6.064Q475.591.571,457.764.776Zm47.373-3.325-.205,3.955q-1.6.044-2.124.044a19.086,19.086,0,0,1-8.423-1.516,10.236,10.236,0,0,1-4.321-3.662,9.221,9.221,0,0,1-1.3-4.885q0-5.361,5.288-9.873l-13.022.132V-22.1h26.118v3.779H500.42a14.379,14.379,0,0,0-5.229,4.116,8.667,8.667,0,0,0-2.051,5.42q0,6.328,9.624,6.328Q503.877-2.461,505.137-2.549ZM526.6-8.394a39.329,39.329,0,0,1-1.912,4.548,17.48,17.48,0,0,1-2.263,3.706,3.269,3.269,0,0,1-2.563,1.194q-3.164,0-5.435-3.9a17.517,17.517,0,0,1-2.271-8.972q0-1.655.322-4.907t.308-4.893h4.482q-.044,1.479-.439,4.849a42.845,42.845,0,0,0-.381,4.863,14.427,14.427,0,0,0,1.135,5.918q1.135,2.549,1.926,2.549,1.143,0,3.6-6.694Zm12.085,5.42-4.409.278a28.052,28.052,0,0,0-1.582-9.141,24.816,24.816,0,0,0-4.307-7.9l3.545-1.772Q538.682-13.989,538.682-2.974Zm28.828.029L565.327.747a31.611,31.611,0,0,0-7.72-4.438l.146.63a3.583,3.583,0,0,1,.117.864A2.971,2.971,0,0,1,555.842.52a13.574,13.574,0,0,1-5.574.93A10.034,10.034,0,0,1,544.9.073a4.244,4.244,0,0,1-2.234-3.779,4.584,4.584,0,0,1,2.051-3.933,8.424,8.424,0,0,1,5.01-1.458,21.905,21.905,0,0,1,3.721.278V-11.25H543.208v-3.472h10.239v-2.856H542.4v-3.486h11.045v-3.179h4.189v3.179h10.356v3.486H557.637v2.856h8.818v3.472h-8.818v3.516A54.749,54.749,0,0,1,567.51-2.944ZM553.447-3.53V-5.3a13.756,13.756,0,0,0-3.105-.5,5.728,5.728,0,0,0-2.542.52,1.6,1.6,0,0,0-1.062,1.458q0,1.7,3.647,1.7Q553.447-2.124,553.447-3.53ZM585.6-11.792l-.029-.82a2.99,2.99,0,0,0-2.607-1.011,2.426,2.426,0,0,0-1.78.828,2.561,2.561,0,0,0-.8,1.809,2.382,2.382,0,0,0,.593,1.655,1.965,1.965,0,0,0,1.531.659,3.01,3.01,0,0,0,2.249-.857A3.089,3.089,0,0,0,585.6-11.792Zm12.964-6.665h-8.7v5.537a10.034,10.034,0,0,1,.835,4.5,8.991,8.991,0,0,1-3.127,7.156,13.754,13.754,0,0,1-8.357,3.04l-1.025-3.545q6.445-.5,8.13-4.614a6.317,6.317,0,0,1-3.809,1.2,6.23,6.23,0,0,1-4.3-1.545,5.066,5.066,0,0,1-1.736-3.962,5.868,5.868,0,0,1,1.838-4.453,6.451,6.451,0,0,1,4.622-1.743,7.218,7.218,0,0,1,2.607.483v-2.051H571.2v-3.486h14.341v-2.93h4.321v2.93h8.7Z" transform="translate(0.159 63.735) rotate(-0.284)" fill="#fff"/>
        <path id="長方形_506" data-name="長方形 506" d="M0,0H63.191A10.131,10.131,0,0,1,73.322,10.131V88.395A10.131,10.131,0,0,1,63.191,98.526H0a0,0,0,0,1,0,0V0A0,0,0,0,1,0,0Z" transform="translate(618.714)" fill="#c35009"/>
      </g>
      <path id="パス_540" data-name="パス 540" d="M704.2,1109.508l-16.81-16.642a2.725,2.725,0,0,1,3.835-3.873l14.878,14.732,14.732-14.88a2.726,2.726,0,0,1,3.89,3.819l-.016.016-16.658,16.827a2.725,2.725,0,0,1-3.852,0Z" transform="translate(-53.015 -1047.401)" fill="#fff"/>
    </g>
  </g>
</svg>
