<svg xmlns="http://www.w3.org/2000/svg" width="648.211" height="135.798" viewBox="0 0 648.211 135.798">
  <g id="グループ_1684" data-name="グループ 1684" transform="translate(13747.105 -714.444)">
    <g id="グループ_1683" data-name="グループ 1683" transform="translate(-13747.105 714.444)">
      <g id="グループ_111" data-name="グループ 111" transform="translate(0)">
        <rect id="長方形_61" data-name="長方形 61" width="648.211" height="135.798" rx="10" transform="translate(0 0)" fill="#d15f17"/>
        <path id="パス_3866" data-name="パス 3866" d="M34.633-23.017A38.717,38.717,0,0,1,23.2-9.069l-3.667-3.4a31.535,31.535,0,0,0,7.335-7.769L13.478-18.211V-7.245a3.775,3.775,0,0,0,.84,2.71q.84.867,3.3.867h15.9v4.9H16.892q-4.7,0-6.775-2.069T8.04-7.136V-17.38L.994-16.314l-.7-4.77,7.9-1.138v-8.256h5.438V-23l18.337-2.638ZM72.3-15.682A35.594,35.594,0,0,1,61.11-4.869,50.752,50.752,0,0,1,44.985,1.9L42.149-.253V-28.816h5.564v24.57A45,45,0,0,0,58.553-9.53a35.2,35.2,0,0,0,9.485-9.042Zm36.151,3.631H91.308v4.914A4.6,4.6,0,0,0,91.8-4.7q.488.741,2.114.741H106.7V.849H93.494q-4.426,0-6.043-1.789T85.833-6.775V-12.05H75.626v-4.679H85.87v-6.757H76.746v-4.625h29.069v4.625H91.47v6.757h16.982Zm38.445-15.1a19.5,19.5,0,0,1-1.888,4.815,24.253,24.253,0,0,1-5,6.54,31.8,31.8,0,0,1-6.477,4.959l-2.8-3.74a22.687,22.687,0,0,0,5.185-4.137,24.016,24.016,0,0,0,3.83-5.149H113.656v-4.661h31.6Zm-16.061,4.986v.885q0,3.7-.135,6.152a21.557,21.557,0,0,1-.994,5.2,15.994,15.994,0,0,1-2.728,5.14A17.4,17.4,0,0,1,122.328-.7a25.3,25.3,0,0,1-6.486,2.737l-1.951-4.372q6.7-2.078,9.087-5.908t2.385-10.46l-.036-3.469Zm54,18.175L181.911.145A34.276,34.276,0,0,0,176.689-3.9,5.415,5.415,0,0,1,174.783.163q-1.725,1.391-6.4,1.391a9.608,9.608,0,0,1-5.691-1.635,5.155,5.155,0,0,1-2.312-4.435,5.467,5.467,0,0,1,2.331-4.562,8.879,8.879,0,0,1,5.51-1.761,30.572,30.572,0,0,1,3.342.217V-18.7H159.833v-4.48h11.725v-6.558h5.167v6.558h6.739v4.48h-6.739v9.629A34.963,34.963,0,0,1,184.837-3.993Zm-13.279-1.03V-6.287a9.122,9.122,0,0,0-3.342-.56,3.861,3.861,0,0,0-2.1.587,1.753,1.753,0,0,0-.93,1.527,1.63,1.63,0,0,0,.958,1.472,4.532,4.532,0,0,0,2.24.533Q171.559-2.728,171.559-5.022Zm-13.55-23.685a53.431,53.431,0,0,0-2.222,13.929A56.645,56.645,0,0,0,157.864.416l-5.077,1.03A59.234,59.234,0,0,1,150.8-13.5a65.3,65.3,0,0,1,2.114-15.917Zm42.872,4.1q0,3.125-.036,4.788H217.52q0,6.54-.289,10.74a29.148,29.148,0,0,1-.9,6.161A5.622,5.622,0,0,1,214.015.172,7.681,7.681,0,0,1,209.679,1.3h-5.691l-.741-4.733h5.546a2.768,2.768,0,0,0,2.782-2.159q.723-2.159.723-10.126H200.664a22.9,22.9,0,0,1-3.821,10.379,23.185,23.185,0,0,1-8.32,7.055l-2.674-3.667a20.158,20.158,0,0,0,7.227-6.757q2.6-4.119,2.6-11.057,0-.524-.018-1.066v-3.776h-8.654v-4.318h33.152v4.318ZM257.157,1.229H223.915V-3.216h13.8v-4.7H226.1v-4.209h11.617v-3.957h-7.245v-1.734a39.633,39.633,0,0,1-6.106,3.2l-2.222-3.794a35.987,35.987,0,0,0,8.193-4.8,34.041,34.041,0,0,0,7.236-7.416h5.4A27.326,27.326,0,0,0,248.9-24.9a44.52,44.52,0,0,0,9.991,5.619l-2.638,4.48A38.039,38.039,0,0,1,250.31-17.9v1.825h-7.335v3.957h11.761v4.209H242.975v4.7h14.182Zm-23.107-21.5h12.809a34.046,34.046,0,0,1-6.54-6.179q-.47.614-1.229,1.481t-1.472,1.644a16.534,16.534,0,0,1-1.707,1.59Q234.917-20.921,234.05-20.271ZM276.506,1.662l-1.337-4.517q7.172-.795,10.786-3.306a8.53,8.53,0,0,0,3.613-7.5,8.892,8.892,0,0,0-2.6-6.694,11.562,11.562,0,0,0-7.208-2.954q-.379,10.117-3.785,16.4T267.4-.632A6.268,6.268,0,0,1,261.963-3.8a12.936,12.936,0,0,1-2.078-7.254v-.452a14.911,14.911,0,0,1,5.031-11.066,18.987,18.987,0,0,1,12.692-5.176h.741q7.317,0,12.023,3.713a12.166,12.166,0,0,1,4.706,10.09q0,6.992-4.742,10.948T276.506,1.662Zm-1.825-24.444a12.819,12.819,0,0,0-6.91,4.264,10.936,10.936,0,0,0-2.845,7.3,9.987,9.987,0,0,0,.7,3.794q.7,1.734,1.969,1.734,2.547,0,4.625-4.95A36.439,36.439,0,0,0,274.682-22.782ZM32.086,45.524H3.252V40.682H26.377V22.833L3.559,22.8v-4.77H32.086Zm37.958.325H40.776V18.3H70.043Zm-5.619-4.625V22.833H46.25V41.224Zm31.959-11.4q0,7.154-3.839,11.319t-11.3,6.007l-1.879-4.589q6.179-1.518,8.807-4.589A10.547,10.547,0,0,0,90.8,30.908V28.054H75.626V23.248H90.8V14.667h5.583v8.582h12.954v4.806H96.384Zm31.128-6.052a27.816,27.816,0,0,1-2.385,9.937,61.044,61.044,0,0,1,4.86,5.673l-3.559,3.288a52.116,52.116,0,0,0-3.7-4.589,34.49,34.49,0,0,1-8.166,8.672L111.7,43.41a30.12,30.12,0,0,0,7.66-8.943,82.471,82.471,0,0,0-6.251-6l3.18-3.252q1.536,1.192,5.149,4.751a21.353,21.353,0,0,0,1.3-6.2h-9.9V19.707h6.179V14.414h4.86v5.293h5.583v4.065Zm16.35,19.2a3.281,3.281,0,0,1-1.3,2.475A4.374,4.374,0,0,1,139.6,46.59h-5.89l-.614-4.625h4.661a1.34,1.34,0,0,0,.849-.316.935.935,0,0,0,.4-.75V24.657h-8.8v-4.1H139v-6.07h4.86v6.07h3.18v4.1h-3.18Zm-6.07-6.179L133.2,38.5a88.748,88.748,0,0,0-4.191-10.623l4.264-1.662A82.107,82.107,0,0,1,137.792,36.8ZM158.587,14.63a16.993,16.993,0,0,1-.885,1.734h8.058v3.306h-4.191l1.229,2.168-4.282.9L157,19.671h-1.572a25.135,25.135,0,0,1-3.433,3.541L148.325,21.3a24.03,24.03,0,0,0,5.492-7.154Zm16.242.145q-.361.759-.813,1.59h9.72v3.306h-5l1.319,1.987-4.48.813-1.626-2.8h-2.186a22.648,22.648,0,0,1-2.511,2.656l-3.74-1.662a24.547,24.547,0,0,0,4.661-6.486ZM163.79,38.333a41.267,41.267,0,0,1-13.17,8.184l-2.294-3.686a40.972,40.972,0,0,0,6.432-3.306h-3.234V29.7H163.79V27.765H150.15V23.917h13.64v-1.7h5.077v1.7h13.947v3.848H168.867V29.7l12.737.018v7.01a2.866,2.866,0,0,1-2.6,3.089,40.8,40.8,0,0,0,5.781,2.385l-2.818,4.209a38.807,38.807,0,0,1-13.1-8.22v8.889H163.79Zm-7.353-5.239V38.46a33.917,33.917,0,0,0,6.305-5.366Zm13.369,0a27.264,27.264,0,0,0,4.806,4.1l-.2-1.1h1.156a1.423,1.423,0,0,0,.894-.226.738.738,0,0,0,.28-.605V33.094Zm39.909,7.769h-5.149l.018-7.1q-6.45,3.162-6.45,5.908,0,2.728,6.215,2.728l2.005-.018a91.614,91.614,0,0,0,12.285-.6l.253,4.517q-5.077.488-9.955.488-9.376,0-12.574-1.6a5.221,5.221,0,0,1-3.2-4.941q0-5.492,10.5-10.786a1.684,1.684,0,0,0-1.409-.6,10.349,10.349,0,0,0-4.237,1.21A26.232,26.232,0,0,0,192.3,34.07q-2.2,1.951-3.162,2.638l-3.144-3.4A33.42,33.42,0,0,0,195.5,22.9h-7.714V18.623h9.593a30.881,30.881,0,0,0,1.138-4.1l5.312.289q-.506,2.24-1.03,3.812h11.924V22.9H201.061q-.47.939-1.734,2.891a11.057,11.057,0,0,1,3.469-.6q3.686,0,5.312,2.276,2.349-1.012,9.9-3.975l2.114,4.3q-3.559,1.21-10.623,3.794a22.047,22.047,0,0,1,.181,2.909ZM234.357,15.3a29.569,29.569,0,0,1-8.69,11.021L222.6,23.212a31.562,31.562,0,0,0,7.1-9.358Zm22.059,4.625H237.176v-4.3h19.241Zm-23.468,27.19h-5.095V35.858a28.522,28.522,0,0,1-2.674,2.565l-2.656-3.36a35.518,35.518,0,0,0,5.682-6.9,35.3,35.3,0,0,0,3.369-5.872l4.3,1.734a26.559,26.559,0,0,1-3.631,6.45h.7Zm19.1-3.993a3.331,3.331,0,0,1-1.265,2.7,4.355,4.355,0,0,1-2.836,1.039h-6.179L241.2,42.2h4.517a1.008,1.008,0,0,0,.741-.334.981.981,0,0,0,.325-.677V30.023H235.459V25.579h22.348v4.444h-5.763Zm16.531,2.836-.813-3.884a71.931,71.931,0,0,0,9.864-.967,12.454,12.454,0,0,0,5.872-2.593,6.2,6.2,0,0,0,2.222-4.95,6.034,6.034,0,0,0-1.888-4.643,6.948,6.948,0,0,0-4.923-1.752q-4.173,0-17.091,2.439l-.7-4.065,9.684-1.427a65.84,65.84,0,0,1,8.184-.831,12.541,12.541,0,0,1,8.428,2.692,9.307,9.307,0,0,1,3.153,7.479Q290.562,45.7,268.575,45.958ZM327,41.856l-.253,4.878q-1.969.054-2.62.054-6.667,0-10.388-1.87a12.624,12.624,0,0,1-5.33-4.517,11.372,11.372,0,0,1-1.608-6.025q0-6.612,6.522-12.177l-16.061.163V17.738h32.212V22.4h-8.292a17.734,17.734,0,0,0-6.45,5.077,10.689,10.689,0,0,0-2.529,6.685q0,7.8,11.87,7.8Q325.448,41.965,327,41.856Zm26.467-7.208a48.5,48.5,0,0,1-2.358,5.61,21.559,21.559,0,0,1-2.791,4.571,4.031,4.031,0,0,1-3.162,1.472q-3.9,0-6.7-4.815a21.6,21.6,0,0,1-2.8-11.066q0-2.042.4-6.052.379-4.029.379-6.034h5.528q-.054,1.825-.542,5.98a52.844,52.844,0,0,0-.47,6,17.793,17.793,0,0,0,1.4,7.3q1.4,3.144,2.376,3.144,1.409,0,4.444-8.256Zm14.9,6.685-5.438.343A34.6,34.6,0,0,0,360.985,30.4a30.606,30.606,0,0,0-5.312-9.738l4.372-2.186Q368.374,27.747,368.374,41.333Zm35.555.036-2.692,4.553a38.987,38.987,0,0,0-9.521-5.474l.181.777a4.419,4.419,0,0,1,.145,1.066,3.664,3.664,0,0,1-2.5,3.351,16.742,16.742,0,0,1-6.874,1.147,12.375,12.375,0,0,1-6.621-1.7,5.235,5.235,0,0,1-2.755-4.661,5.653,5.653,0,0,1,2.529-4.851,10.39,10.39,0,0,1,6.179-1.8,27.016,27.016,0,0,1,4.589.343v-3H373.957V26.843h12.628V23.32H372.963v-4.3h13.622V15.1h5.167v3.92h12.773v4.3H391.752v3.523h10.876v4.282H391.752v4.336A67.523,67.523,0,0,1,403.929,41.369Zm-17.344-.723V38.46a16.966,16.966,0,0,0-3.83-.614,7.064,7.064,0,0,0-3.135.641,1.977,1.977,0,0,0-1.31,1.8q0,2.1,4.5,2.1Q386.585,42.38,386.585,40.646Zm39.656-10.189-.036-1.012a3.688,3.688,0,0,0-3.216-1.247,2.992,2.992,0,0,0-2.2,1.021,3.159,3.159,0,0,0-.985,2.231,2.937,2.937,0,0,0,.732,2.042,2.424,2.424,0,0,0,1.888.813,3.712,3.712,0,0,0,2.773-1.057A3.81,3.81,0,0,0,426.241,30.457Zm15.989-8.22H431.5v6.829a12.375,12.375,0,0,1,1.03,5.546,11.089,11.089,0,0,1-3.857,8.825q-3.857,3.333-10.307,3.749L417.1,42.814q7.949-.614,10.027-5.691a7.791,7.791,0,0,1-4.7,1.481,7.684,7.684,0,0,1-5.3-1.906,6.248,6.248,0,0,1-2.141-4.887,7.237,7.237,0,0,1,2.267-5.492,7.956,7.956,0,0,1,5.7-2.15,8.9,8.9,0,0,1,3.216.6V22.236H408.481v-4.3h17.687V14.323h5.33v3.613h10.731Z" transform="translate(33.046 58.242) rotate(-0.284)" fill="#fff"/>
        <path id="長方形_62" data-name="長方形 62" d="M0,0H90.526a10,10,0,0,1,10,10V125.8a10,10,0,0,1-10,10H0a0,0,0,0,1,0,0V0A0,0,0,0,1,0,0Z" transform="translate(547.685)" fill="#c35009"/>
      </g>
      <path id="パス_201" data-name="パス 201" d="M321.616,626.324,298.57,603.508a3.737,3.737,0,0,1,5.259-5.311l20.4,20.2,20.2-20.4a3.736,3.736,0,1,1,5.334,5.234l-.023.022L326.9,626.324a3.737,3.737,0,0,1-5.282,0Z" transform="translate(274.961 -541.174)" fill="#fff"/>
    </g>
  </g>
</svg>
