<?xml version="1.0" encoding="utf-8"?>
<!-- Generator: Adobe Illustrator 25.1.0, SVG Export Plug-In . SVG Version: 6.00 Build 0)  -->
<svg version="1.1" id="レイヤー_1" xmlns="http://www.w3.org/2000/svg" xmlns:xlink="http://www.w3.org/1999/xlink" x="0px"
	 y="0px" viewBox="0 0 100 100" enable-background="new 0 0 100 100" xml:space="preserve">
<path fill="#22A573" d="M50,1C22.9,1,1,22.9,1,50s21.9,49,49,49s49-21.9,49-49S77.1,1,50,1z M69.1,52.8L45.3,76.5
	c-1.5,1.5-4,1.5-5.5,0c-1.5-1.5-1.5-3.9,0-5.4l21-21l-21-21c-1.5-1.5-1.5-4,0-5.5c1.5-1.5,4-1.5,5.5,0c0,0,0,0,0,0l23.8,23.8
	c0.7,0.7,1.1,1.7,1.1,2.7C70.2,51,69.8,52,69.1,52.8z"/>
</svg>
